<svg width="51" height="49" viewBox="0 0 51 49" fill="none" xmlns="http://www.w3.org/2000/svg">
<path d="M44.3799 25.648H40.8558L41.042 21.7403C41.0631 21.2974 40.9018 20.865 40.5959 20.5443C40.29 20.2236 39.8658 20.042 39.4226 20.042H3.75698C3.31357 20.042 2.88961 20.2236 2.58374 20.5443C2.27786 20.8653 2.11654 21.2974 2.13762 21.7403L2.85746 36.8406C3.03525 40.5722 5.32095 43.712 8.53238 45.1384H1.62125C0.726051 45.1384 0 45.8645 0 46.7597C0 47.6549 0.726051 48.3809 1.62125 48.3809H41.787C42.6822 48.3809 43.4082 47.6549 43.4082 46.7597C43.4082 45.8645 42.6822 45.1384 41.787 45.1384H34.6475C37.2507 43.9819 39.2438 41.6995 40.0003 38.8882H44.3799C48.0301 38.8882 51 35.9184 51 32.2681C51 28.6179 48.0301 25.648 44.3799 25.648ZM30.7554 42.7201H12.4245C9.03713 42.7201 6.25749 40.0696 6.09618 36.686L5.45741 23.284H37.7222L37.0837 36.686C36.9224 40.0696 34.1428 42.7201 30.7554 42.7201ZM44.3799 35.6457H40.3795L40.7015 28.887C40.7256 28.8881 40.7494 28.8905 40.7737 28.8905H44.3799C46.2424 28.8905 47.7575 30.4056 47.7575 32.2681C47.7575 34.1307 46.2424 35.6457 44.3799 35.6457Z" fill="#F11117"/>
<path d="M16.8259 17.3846C17.0847 17.5375 17.3687 17.6105 17.6492 17.6105C18.2037 17.6105 18.7438 17.3257 19.0464 16.8139C19.5023 16.043 19.2467 15.0489 18.4758 14.5933C17.5743 14.0605 16.9512 13.0775 16.7664 11.8966C16.574 10.6672 16.8953 9.44261 17.6251 8.62145C17.6316 8.61415 17.6381 8.60686 17.6443 8.59929C17.8208 8.39339 17.9972 8.19101 18.1721 7.99024C19.6717 6.26793 21.2227 4.48753 21.668 1.89623C21.8199 1.01372 21.2273 0.175267 20.3451 0.0236796C19.4626 -0.127907 18.6241 0.46412 18.4725 1.34662C18.181 3.04245 17.0437 4.34837 15.7269 5.86046C15.5494 6.06419 15.3705 6.26982 15.1916 6.47843C13.8322 8.01537 13.2234 10.2268 13.5631 12.3973C13.8976 14.539 15.0871 16.3567 16.8259 17.3846Z" fill="#F11117"/>
<path d="M21.8575 13.7236C22.3928 15.1019 23.3477 16.3643 24.5466 17.2782C24.84 17.5019 25.1854 17.6103 25.5283 17.6103C26.0168 17.6103 26.4999 17.3903 26.8188 16.9718C27.3616 16.2598 27.2244 15.2424 26.5121 14.6996C25.7923 14.1508 25.1973 13.3674 24.88 12.5501C24.248 10.9226 24.8468 9.3008 26.8825 7.12697C28.3257 5.5857 29.2482 3.77043 29.55 1.87681C29.6908 0.992689 29.0885 0.161527 28.2041 0.0204781C27.32 -0.120571 26.4889 0.481995 26.3478 1.36639C26.1454 2.6361 25.5291 3.82853 24.5158 4.91072C23.4525 6.04586 20.2176 9.50048 21.8575 13.7236Z" fill="#F11117"/>
</svg>
