<svg width="48" height="46" viewBox="0 0 48 46" fill="none" xmlns="http://www.w3.org/2000/svg">
<path d="M46.4278 32.2466C46.0229 31.8418 45.8846 31.2457 46.0914 30.7969C49.8988 22.5357 47.2797 13.3199 40.9809 7.02124C34.6982 0.738686 25.4821 -1.90562 17.2039 1.90953C16.7551 2.11634 16.1589 1.97806 15.754 1.57315C15.7306 1.54962 15.7064 1.52712 15.6816 1.50556C13.4827 -0.546156 10.0401 -0.501625 7.89449 1.64375C5.75559 3.78265 5.70937 7.23405 7.75565 9.42996C7.7773 9.45499 7.80008 9.47936 7.82399 9.50327C8.19702 9.8763 8.29452 10.459 8.0669 10.9531C6.36768 14.6398 5.87502 18.6581 6.61377 22.6741H1.40184C0.627655 22.6741 0 23.3018 0 24.0759C0 35.6706 9.47493 45.1038 21.1213 45.1038C25.7638 45.1038 30.0603 43.6036 33.5502 41.0663C34.7401 40.7732 35.9159 40.3623 37.0479 39.8405C37.4965 39.6336 38.0927 39.7719 38.4976 40.1768C40.5185 42.2015 44.1059 42.3575 46.3571 40.1061C48.6152 37.8479 48.456 34.2711 46.4278 32.2466ZM11.1905 31.9406C9.72936 30.1264 8.76149 27.905 8.48999 25.4777H17.7143L11.1905 31.9406ZM19.7194 27.4378V36.6154C17.2613 36.3464 15.0123 35.379 13.1785 33.9177L19.7194 27.4378ZM21.1213 42.2999C11.495 42.2999 3.57928 34.874 2.8574 25.4776H5.67187C6.38549 33.3189 13.059 39.4961 21.1212 39.4961C29.284 39.4961 35.8675 33.193 36.5705 25.4682H39.3851C38.6633 34.8647 30.7475 42.2999 21.1213 42.2999ZM29.0177 33.9547C27.1924 35.3955 24.9605 36.3486 22.5231 36.6154V27.4601L29.0177 33.9547ZM24.5057 25.4683H33.7526C33.4786 27.9162 32.4966 30.1641 31.0147 31.9867L24.5057 25.4683ZM44.3745 38.1236C43.2814 39.2167 41.5027 39.2167 40.4095 38.1236C39.8075 37.5207 38.8398 37.0329 37.8061 36.954C40.5852 33.3934 42.2426 28.9239 42.2426 24.0758C42.2426 23.3017 41.6149 22.674 40.8407 22.674C39.738 22.674 9.90224 22.674 9.47268 22.674C8.70093 19.0594 9.08915 15.4337 10.6133 12.1265C11.2951 10.647 11.0351 8.90027 9.97611 7.70112C9.94546 7.66324 9.91246 7.62668 9.87721 7.59143C8.78408 6.4983 8.78408 4.71959 9.87711 3.62637C10.973 2.53062 12.7463 2.53062 13.8422 3.62637C13.8739 3.65815 13.9068 3.68806 13.9407 3.716C15.1735 4.82337 16.9278 5.12384 18.3774 4.45578C25.0609 1.37544 33.1552 3.16062 38.9985 9.00386C44.8408 14.8462 46.6254 22.9399 43.545 29.6236C42.805 31.2295 43.3058 33.0914 44.3745 34.1586C45.4703 35.2544 45.4703 37.0278 44.3745 38.1236Z" fill="#F11117"/>
</svg>
