<svg width="48" height="31" viewBox="0 0 48 31" fill="none" xmlns="http://www.w3.org/2000/svg">
<path d="M43.7812 19.6875H4.21875C1.89253 19.6875 0 21.58 0 23.9062V26.7188C0 29.045 1.89253 30.9375 4.21875 30.9375H43.7812C46.1075 30.9375 48 29.045 48 26.7188V23.9062C48 21.58 46.1075 19.6875 43.7812 19.6875ZM14.1562 28.125H4.21875C3.44334 28.125 2.8125 27.4942 2.8125 26.7188V23.9062C2.8125 23.1308 3.44334 22.5 4.21875 22.5H14.1562V28.125ZM33.9375 28.125H16.9688V22.5H33.9375V28.125ZM39.5625 28.125H36.75V22.5H39.5625V28.125ZM45.1875 26.7188C45.1875 27.4942 44.5567 28.125 43.7812 28.125H42.375V22.5H43.7812C44.5567 22.5 45.1875 23.1308 45.1875 23.9062V26.7188Z" fill="#F11117"/>
<path d="M36.6318 5.74322C36.025 2.47931 33.1559 0 29.7188 0H27.2073C23.625 0 20.5138 2.51953 19.9702 5.86069C19.2655 10.1924 22.5795 14.0625 26.9062 14.0625H38.1563C38.9317 14.0625 39.5625 14.6933 39.5625 15.4688C39.5625 16.2454 40.1921 16.875 40.9688 16.875C41.7454 16.875 42.375 16.2454 42.375 15.4688V12.6562C42.375 9.21909 39.8958 6.35006 36.6318 5.74322ZM38.1563 11.25H26.9062C24.3837 11.25 22.3071 9.01153 22.7463 6.31228C23.0708 4.31709 24.9887 2.8125 27.2073 2.8125H29.7188C32.045 2.8125 33.9375 4.70503 33.9375 7.03125C33.9375 7.80788 34.5671 8.4375 35.3438 8.4375C37.2442 8.4375 38.8551 9.7005 39.3812 11.4313C38.9934 11.3135 38.5821 11.25 38.1563 11.25Z" fill="#F11117"/>
</svg>
