<svg width="35" height="48" viewBox="0 0 35 48" fill="none" xmlns="http://www.w3.org/2000/svg">
<path d="M31.5182 38.591L28.4241 37.0766L31.5182 35.5623C33.9732 34.3606 34.993 31.3857 33.7914 28.9306C32.6056 26.5079 29.693 25.4843 27.2574 26.6127C27.8893 25.2194 28.2412 23.6732 28.2412 22.0465C28.2412 19.5605 26.6068 15.3136 23.2444 9.06283C20.8362 4.5857 18.3935 0.711658 18.3692 0.672939C18.1043 0.254063 17.6434 0 17.1479 0C16.6523 0 16.1913 0.254063 15.9266 0.672939C15.9022 0.711564 13.4596 4.5857 11.0513 9.06274C7.68894 15.3134 6.0545 19.5604 6.0545 22.0464C6.0545 23.6732 6.40663 25.2193 7.03832 26.6126C4.60231 25.484 1.69006 26.5079 0.504303 28.9306C-0.697387 31.3856 0.322522 34.3606 2.77756 35.5622L5.87159 37.0765L2.77896 38.5902C2.7785 38.5905 2.77803 38.5907 2.77756 38.5909C0.322615 39.7926 -0.697105 42.7675 0.504397 45.2225V45.2226C1.3639 46.9783 3.13015 48 4.96475 48C5.69534 48 6.43681 47.8379 7.136 47.4957L17.1479 42.5956L27.1597 47.4957C27.8591 47.8381 28.6002 48 29.331 48C31.1655 48 32.932 46.9782 33.7913 45.2226V45.2225C34.9929 42.7676 33.9732 39.7926 31.5182 38.591ZM17.1479 4.20001C20.2145 9.28961 25.352 18.5476 25.352 22.0463C25.352 24.3505 24.3959 26.4346 22.8611 27.9262C22.8768 27.7532 22.8861 27.5784 22.8861 27.4014C22.8861 26.6089 22.6458 25.1085 20.5668 21.2439C19.4819 19.2271 18.414 17.5332 18.3692 17.462C18.1044 17.043 17.6435 16.7891 17.1479 16.7891C16.6522 16.7891 16.1913 17.0431 15.9266 17.462C15.8817 17.5331 14.8137 19.227 13.7289 21.2439C11.65 25.1085 11.4096 26.609 11.4096 27.4014C11.4096 27.5784 11.4189 27.7532 11.4346 27.9262C9.89985 26.4345 8.94369 24.3505 8.94369 22.0463C8.9436 18.5478 14.0812 9.28961 17.1479 4.20001ZM19.9971 27.4016C19.9971 28.9235 18.7976 30.1706 17.2943 30.247C17.2454 30.2478 17.1971 30.2507 17.148 30.2507C17.0988 30.2507 17.0504 30.2479 17.0016 30.247C15.4983 30.1705 14.2988 28.9234 14.2988 27.4016C14.2988 26.4473 15.6242 23.6821 17.1482 21.033C18.6719 23.6813 19.9971 26.4461 19.9971 27.4016ZM6.91306 43.7138C6.734 44.2365 6.362 44.658 5.86597 44.9008C4.84212 45.4021 3.60059 44.9767 3.09931 43.9524C2.59803 42.9283 3.02356 41.6872 4.04768 41.1858C5.07237 40.6846 6.31306 41.11 6.81435 42.1341C7.05707 42.6303 7.09222 43.1915 6.91306 43.7138ZM4.04759 32.9674C3.02337 32.466 2.59793 31.2248 3.09921 30.2008C3.45781 29.4683 4.19478 29.042 4.96016 29.042C5.26484 29.042 5.57422 29.1095 5.86588 29.2523L13.8619 33.1658L9.15754 35.4683L4.04759 32.9674ZM24.8865 40.8642C24.5674 41.5161 24.3989 42.215 24.3816 42.9196L20.4337 40.9874L25.1381 38.6849L26.2031 39.2061C25.6653 39.6442 25.2109 40.2013 24.8865 40.8642ZM9.91401 42.9196C9.89676 42.215 9.72838 41.5161 9.40916 40.8642C9.08469 40.2014 8.63029 39.6442 8.09254 39.2061L28.4298 29.2523C29.4536 28.751 30.695 29.1765 31.1964 30.2007C31.6977 31.225 31.2722 32.466 30.248 32.9673L9.91401 42.9196ZM31.1965 43.9525C30.6951 44.9767 29.4542 45.4024 28.4299 44.9009C27.9338 44.6581 27.5618 44.2366 27.3828 43.7139C27.2036 43.1914 27.2387 42.6304 27.4815 42.1341C27.8401 41.4017 28.577 40.9754 29.3423 40.9754C29.6471 40.9754 29.9564 41.043 30.248 41.1859C31.2723 41.6871 31.6977 42.9283 31.1965 43.9525Z" fill="#F11117"/>
</svg>
