<svg width="30" height="48" viewBox="0 0 30 48" fill="none" xmlns="http://www.w3.org/2000/svg">
<path d="M14.9641 22.6155C10.9427 22.6155 7.67175 25.8868 7.67175 29.9078V31.8649C7.67175 33.4744 8.80701 34.8235 10.3191 35.1538L10.4615 36.8596C10.6154 38.7068 12.1882 40.1541 14.0416 40.1541H15.8862C17.7396 40.1541 19.3125 38.7068 19.4663 36.8596L19.6088 35.1538C21.1208 34.8235 22.2561 33.4744 22.2561 31.8649V29.9078C22.2561 25.8868 18.9851 22.6155 14.9641 22.6155ZM19.4872 31.8649C19.4872 32.1937 19.2191 32.4614 18.8899 32.4614H18.3285C17.6082 32.4614 17.0083 33.0137 16.9486 33.7311L16.7069 36.6296C16.6714 37.053 16.311 37.3848 15.8862 37.3848H14.0416C13.6168 37.3848 13.2565 37.053 13.2209 36.6296L12.9792 33.7311C12.9196 33.0137 12.3197 32.4614 11.5994 32.4614H11.038C10.7087 32.4614 10.441 32.1937 10.441 31.8649V29.9078C10.441 27.4136 12.4698 25.3848 14.9641 25.3848C17.458 25.3848 19.4872 27.4136 19.4872 29.9078V31.8649Z" fill="#F11117"/>
<path d="M14.9641 31.3232C14.1991 31.3232 13.5795 31.9432 13.5795 32.7079V32.7694C13.5795 33.5341 14.1991 34.1541 14.9641 34.1541C15.7288 34.1541 16.3484 33.5341 16.3484 32.7694V32.7079C16.3484 31.9432 15.7288 31.3232 14.9641 31.3232Z" fill="#F11117"/>
<path d="M16.9332 28.5232C16.1686 28.5232 15.5486 29.1432 15.5486 29.9078C15.5486 30.6725 16.1686 31.2925 16.9332 31.2925H17.2716C18.0363 31.2925 18.6562 30.6725 18.6562 29.9078C18.6562 29.1432 18.0363 28.5232 17.2716 28.5232H16.9332Z" fill="#F11117"/>
<path d="M14.3793 29.9078C14.3793 29.1432 13.7593 28.5232 12.9946 28.5232H12.6562C11.8916 28.5232 11.2716 29.1432 11.2716 29.9078C11.2716 30.6725 11.8916 31.2925 12.6562 31.2925H12.9946C13.7593 31.2925 14.3793 30.6725 14.3793 29.9078Z" fill="#F11117"/>
<path d="M26.3188 16.5967L20.0409 12.2021V8.71399C22.1309 8.3811 23.733 6.56653 23.733 4.38464C23.733 1.96692 21.7661 0 19.3484 0H10.5795C8.16174 0 6.19482 1.96692 6.19482 4.38464C6.19482 6.56653 7.797 8.3811 9.88696 8.71399V12.2021L3.60901 16.5967C1.76001 17.8909 0.65625 20.0112 0.65625 22.2682V43.8461C0.65625 46.1367 2.51953 48 4.81018 48H25.1177C27.4083 48 29.2716 46.1367 29.2716 43.8461V22.2682C29.2716 20.0112 28.1678 17.8909 26.3188 16.5967ZM8.96411 4.38464C8.96411 3.49402 9.68848 2.76929 10.5795 2.76929H19.3484C20.2394 2.76929 20.9641 3.49402 20.9641 4.38464C20.9641 5.27527 20.2394 6 19.3484 6H10.5795C9.68848 6 8.96411 5.27527 8.96411 4.38464ZM26.5023 43.8461C26.5023 44.6096 25.8812 45.2307 25.1177 45.2307H4.81018C4.04663 45.2307 3.42554 44.6096 3.42554 43.8461V22.2682C3.42554 20.9139 4.08765 19.6417 5.19727 18.8654L12.0656 14.0574C12.4358 13.7985 12.6562 13.3748 12.6562 12.9232V8.76929H17.2716V12.9232C17.2716 13.3748 17.4921 13.7981 17.8623 14.0574L24.7306 18.8654C25.8402 19.6417 26.5023 20.9139 26.5023 22.2682V43.8461Z" fill="#F11117"/>
</svg>
