<svg width="31" height="48" viewBox="0 0 31 48" fill="none" xmlns="http://www.w3.org/2000/svg">
<path d="M0 7.02393C0 3.15088 3.15088 0 7.02356 0H13.511C15.7764 4.53076 16.3997 5.75903 21.6896 9.19446C23.6455 10.4648 25.8625 11.9048 28.1103 14.2108C30.6401 16.8058 31.5648 20.5459 30.4153 24.2C29.1507 28.2188 25.3953 30.9045 21.0535 30.9042H20.9718C18.0223 30.8811 16.3473 29.855 15.0018 29.0303C14.027 28.433 13.4366 28.095 12.6427 28.095C11.9066 28.095 11.6279 28.3586 11.0131 29.0083C10.2671 29.7964 9.24573 30.8756 7.10888 30.9038C7.07922 30.9042 7.04919 30.9045 7.01953 30.9045C3.75036 30.9045 0.807495 28.5355 0.15271 25.3612C0.0362549 24.7972 -0.012085 24.2307 0.00512695 23.6715H0V7.02393ZM2.90405 24.7936C3.2915 26.6704 5.12073 28.1199 7.0719 28.0946C8.02148 28.0822 8.35913 27.7251 8.9729 27.0769C9.68811 26.321 10.6681 25.2854 12.6427 25.2854C14.2676 25.2854 15.3871 25.9713 16.4696 26.6349C17.6807 27.3768 18.8243 28.0778 20.9934 28.0946C21.0135 28.0946 21.033 28.095 21.0527 28.095C24.1608 28.095 26.8418 26.1969 27.735 23.3569C28.5542 20.7524 27.9386 18.0597 26.0987 16.1719C24.0692 14.09 22.0814 12.7991 20.1592 11.5507C16.1602 8.95349 14.016 7.29089 11.7744 2.80957H7.02356C4.69995 2.80957 2.8092 4.69995 2.8092 7.02356V18.2596C4.01221 17.3555 5.48218 16.8571 7.02356 16.8571C8.89966 16.8571 10.6633 17.5873 11.9901 18.9141L10.0034 20.9008C9.20764 20.1046 8.14929 19.6663 7.02356 19.6663C4.43445 19.6666 2.33167 22.0181 2.90405 24.7936Z" fill="#F11117"/>
<path d="M21.6266 34.4241L23.1848 36.762C22.6271 37.134 22.307 37.7321 22.307 38.4026C22.307 39.0731 22.6271 39.6711 23.1848 40.0432C24.5182 40.932 25.314 42.4192 25.314 44.0214C25.314 45.6239 24.5182 47.1111 23.1848 47.9999L21.6266 45.6624C22.1843 45.2903 22.5048 44.6923 22.5048 44.0214C22.5048 43.3508 22.1843 42.7528 21.6266 42.3807C20.2932 41.4919 19.4974 40.0048 19.4974 38.4026C19.4974 36.8004 20.2932 35.3129 21.6266 34.4241Z" fill="#F11117"/>
<path d="M14.6027 34.4241L16.1612 36.762C15.6031 37.134 15.2831 37.7321 15.2831 38.4026C15.2831 39.0731 15.6031 39.6711 16.1612 40.0432C17.4943 40.932 18.2904 42.4192 18.2904 44.0214C18.2904 45.6239 17.4943 47.1111 16.1612 47.9999L14.6027 45.6624C15.1608 45.2903 15.4808 44.6923 15.4808 44.0214C15.4808 43.3508 15.1608 42.7528 14.6027 42.3807C13.2696 41.4919 12.4735 40.0048 12.4735 38.4026C12.4735 36.8004 13.2696 35.3129 14.6027 34.4241Z" fill="#F11117"/>
<path d="M7.57909 34.4241L9.13732 36.762C8.57958 37.134 8.25951 37.7321 8.25951 38.4026C8.25951 39.0731 8.57958 39.6711 9.13732 40.0432C10.4707 40.932 11.2665 42.4192 11.2665 44.0214C11.2665 45.6239 10.4707 47.1111 9.13732 47.9999L7.57909 45.6624C8.13683 45.2903 8.45727 44.6923 8.45727 44.0214C8.45727 43.3508 8.13683 42.7528 7.57909 42.3807C6.24572 41.4919 5.44994 40.0048 5.44994 38.4026C5.44994 36.8004 6.24572 35.3129 7.57909 34.4241Z" fill="#F11117"/>
</svg>
